<mxfile host="app.diagrams.net" modified="2022-11-02T17:04:01.607Z" agent="5.0 (Windows NT 10.0; Win64; x64) AppleWebKit/537.36 (KHTML, like Gecko) Chrome/107.0.0.0 Safari/537.36" etag="5ZE9FFRt42QuSzvYMWT1" version="20.5.1" type="github">
  <diagram id="mONG-hsozXbM-D31LlXX" name="第 1 页">
    <mxGraphModel dx="2249" dy="762" grid="1" gridSize="10" guides="1" tooltips="1" connect="1" arrows="1" fold="1" page="1" pageScale="1" pageWidth="827" pageHeight="1169" math="0" shadow="0">
      <root>
        <mxCell id="0" />
        <mxCell id="1" parent="0" />
        <mxCell id="A87QBVnuz-hBnnOK0TbW-1" value="" style="rounded=0;whiteSpace=wrap;html=1;dashed=1;" vertex="1" parent="1">
          <mxGeometry x="-10" y="405" width="350" height="180" as="geometry" />
        </mxCell>
        <mxCell id="A87QBVnuz-hBnnOK0TbW-2" value="" style="rounded=0;whiteSpace=wrap;html=1;dashed=1;" vertex="1" parent="1">
          <mxGeometry x="460" y="405" width="360" height="180" as="geometry" />
        </mxCell>
        <mxCell id="A87QBVnuz-hBnnOK0TbW-3" value="TransportT" style="rounded=0;whiteSpace=wrap;html=1;" vertex="1" parent="1">
          <mxGeometry x="10" y="500" width="110" height="50" as="geometry" />
        </mxCell>
        <mxCell id="A87QBVnuz-hBnnOK0TbW-4" value="FecServer" style="rounded=0;whiteSpace=wrap;html=1;" vertex="1" parent="1">
          <mxGeometry x="220" y="500" width="110" height="50" as="geometry" />
        </mxCell>
        <mxCell id="A87QBVnuz-hBnnOK0TbW-6" value="FecServer" style="rounded=0;whiteSpace=wrap;html=1;" vertex="1" parent="1">
          <mxGeometry x="472" y="500" width="110" height="50" as="geometry" />
        </mxCell>
        <mxCell id="A87QBVnuz-hBnnOK0TbW-7" value="libcoreserver" style="rounded=0;whiteSpace=wrap;html=1;" vertex="1" parent="1">
          <mxGeometry x="690" y="500" width="110" height="50" as="geometry" />
        </mxCell>
        <mxCell id="A87QBVnuz-hBnnOK0TbW-12" value="IS+" style="shape=flexArrow;endArrow=classic;startArrow=classic;html=1;rounded=0;" edge="1" parent="1">
          <mxGeometry x="0.1228" y="-16" width="100" height="100" relative="1" as="geometry">
            <mxPoint x="346" y="524" as="sourcePoint" />
            <mxPoint x="460" y="524" as="targetPoint" />
            <Array as="points">
              <mxPoint x="386" y="524" />
            </Array>
            <mxPoint as="offset" />
          </mxGeometry>
        </mxCell>
        <mxCell id="A87QBVnuz-hBnnOK0TbW-13" value="RPC" style="shape=flexArrow;endArrow=classic;startArrow=classic;html=1;rounded=0;" edge="1" parent="1">
          <mxGeometry y="-16" width="100" height="100" relative="1" as="geometry">
            <mxPoint x="125" y="524" as="sourcePoint" />
            <mxPoint x="215" y="524" as="targetPoint" />
            <Array as="points">
              <mxPoint x="165" y="524" />
            </Array>
            <mxPoint as="offset" />
          </mxGeometry>
        </mxCell>
        <mxCell id="A87QBVnuz-hBnnOK0TbW-14" value="RPC" style="shape=flexArrow;endArrow=classic;startArrow=classic;html=1;rounded=0;" edge="1" parent="1">
          <mxGeometry y="-16" width="100" height="100" relative="1" as="geometry">
            <mxPoint x="591" y="522" as="sourcePoint" />
            <mxPoint x="681" y="522" as="targetPoint" />
            <Array as="points">
              <mxPoint x="631" y="522" />
            </Array>
            <mxPoint as="offset" />
          </mxGeometry>
        </mxCell>
        <mxCell id="A87QBVnuz-hBnnOK0TbW-15" style="edgeStyle=orthogonalEdgeStyle;shape=link;rounded=0;orthogonalLoop=1;jettySize=auto;html=1;exitX=0.5;exitY=1;exitDx=0;exitDy=0;" edge="1" parent="1" source="A87QBVnuz-hBnnOK0TbW-2" target="A87QBVnuz-hBnnOK0TbW-2">
          <mxGeometry relative="1" as="geometry" />
        </mxCell>
        <mxCell id="A87QBVnuz-hBnnOK0TbW-16" value="T" style="text;html=1;strokeColor=none;fillColor=none;align=center;verticalAlign=middle;whiteSpace=wrap;rounded=0;dashed=1;labelBackgroundColor=none;" vertex="1" parent="1">
          <mxGeometry x="130" y="600" width="60" height="30" as="geometry" />
        </mxCell>
        <mxCell id="A87QBVnuz-hBnnOK0TbW-17" value="R" style="text;html=1;strokeColor=none;fillColor=none;align=center;verticalAlign=middle;whiteSpace=wrap;rounded=0;dashed=1;labelBackgroundColor=none;" vertex="1" parent="1">
          <mxGeometry x="610" y="600" width="60" height="30" as="geometry" />
        </mxCell>
      </root>
    </mxGraphModel>
  </diagram>
</mxfile>
